<?xml version="1.0" encoding="UTF-8" standalone="no"?>
<!-- Created with Inkscape (http://www.inkscape.org/) -->

<svg
   width="299.22079mm"
   height="113.16964mm"
   viewBox="0 0 299.22079 113.16964"
   version="1.1"
   id="svg5"
   xml:space="preserve"
   inkscape:version="1.2.1 (9c6d41e410, 2022-07-14, custom)"
   sodipodi:docname="logo.svg"
   xmlns:inkscape="http://www.inkscape.org/namespaces/inkscape"
   xmlns:sodipodi="http://sodipodi.sourceforge.net/DTD/sodipodi-0.dtd"
   xmlns="http://www.w3.org/2000/svg"
   xmlns:svg="http://www.w3.org/2000/svg"><sodipodi:namedview
     id="namedview7"
     pagecolor="#414973"
     bordercolor="#999999"
     borderopacity="1"
     inkscape:showpageshadow="0"
     inkscape:pageopacity="0"
     inkscape:pagecheckerboard="0"
     inkscape:deskcolor="#d1d1d1"
     inkscape:document-units="mm"
     showgrid="false"
     inkscape:zoom="0.67793911"
     inkscape:cx="803.90701"
     inkscape:cy="448.41785"
     inkscape:window-width="1726"
     inkscape:window-height="1227"
     inkscape:window-x="1596"
     inkscape:window-y="509"
     inkscape:window-maximized="0"
     inkscape:current-layer="layer1" /><defs
     id="defs2"><clipPath
       clipPathUnits="userSpaceOnUse"
       id="clipPath19870-2-36-2"><g
         id="g19876-2-7-0"
         transform="matrix(0.03295899,0,0,0.03282482,-160.73927,21.194378)"><g
           id="g19874-6-5-6"
           transform="translate(-2.8824639e-6,-1.4014878e-5)"><path
             clip-rule="nonzero"
             d="m 4883.2285,-676.02431 h 303.4074 V 43.943376 h -303.4074 z m 0,0"
             id="path19872-1-3-8"
             style="stroke-width:30.4027" /></g></g></clipPath><inkscape:path-effect
       effect="skeletal"
       id="path-effect20419-0-56-9"
       is_visible="true"
       lpeversion="1"
       pattern="M 0,18.867924 C 0,8.4528301 8.4528301,0 18.867924,0 c 10.415095,0 18.867925,8.4528301 18.867925,18.867924 0,10.415095 -8.45283,18.867925 -18.867925,18.867925 C 8.4528301,37.735849 0,29.283019 0,18.867924 Z"
       copytype="single_stretched"
       prop_scale="2.9439991"
       scale_y_rel="false"
       spacing="0"
       normal_offset="0"
       tang_offset="0"
       prop_units="false"
       vertical_pattern="false"
       hide_knot="false"
       fuse_tolerance="0" /><clipPath
       clipPathUnits="userSpaceOnUse"
       id="clipPath19870-2-36-2-6"><g
         id="g19876-2-7-0-7"
         transform="matrix(0.03295899,0,0,0.03282482,-160.73927,21.194378)"><g
           id="g19874-6-5-6-5"
           transform="translate(-2.8824639e-6,-1.4014878e-5)"><path
             clip-rule="nonzero"
             d="m 4883.2285,-676.02431 h 303.4074 V 43.943376 h -303.4074 z m 0,0"
             id="path19872-1-3-8-3"
             style="stroke-width:30.4027" /></g></g></clipPath><inkscape:path-effect
       effect="skeletal"
       id="path-effect20419-0-56-9-5"
       is_visible="true"
       lpeversion="1"
       pattern="M 0,18.867924 C 0,8.4528301 8.4528301,0 18.867924,0 c 10.415095,0 18.867925,8.4528301 18.867925,18.867924 0,10.415095 -8.45283,18.867925 -18.867925,18.867925 C 8.4528301,37.735849 0,29.283019 0,18.867924 Z"
       copytype="single_stretched"
       prop_scale="2.9439991"
       scale_y_rel="false"
       spacing="0"
       normal_offset="0"
       tang_offset="0"
       prop_units="false"
       vertical_pattern="false"
       hide_knot="false"
       fuse_tolerance="0" /><inkscape:path-effect
       effect="skeletal"
       id="path-effect20419-0-56-9-3"
       is_visible="true"
       lpeversion="1"
       pattern="M 0,18.867924 C 0,8.4528301 8.4528301,0 18.867924,0 c 10.415095,0 18.867925,8.4528301 18.867925,18.867924 0,10.415095 -8.45283,18.867925 -18.867925,18.867925 C 8.4528301,37.735849 0,29.283019 0,18.867924 Z"
       copytype="single_stretched"
       prop_scale="2.9439991"
       scale_y_rel="false"
       spacing="0"
       normal_offset="0"
       tang_offset="0"
       prop_units="false"
       vertical_pattern="false"
       hide_knot="false"
       fuse_tolerance="0" /><inkscape:path-effect
       effect="fill_between_many"
       method="originald"
       linkedpaths="#path20417-9-1-5-6,0,1"
       id="path-effect1015"
       is_visible="true"
       lpeversion="0"
       join="true"
       close="true"
       autoreverse="true" /><inkscape:path-effect
       effect="fill_between_many"
       method="originald"
       linkedpaths="#path20417-9-1-5-2,0,1"
       id="path-effect1019"
       is_visible="true"
       lpeversion="0"
       join="true"
       close="true"
       autoreverse="true" /><inkscape:path-effect
       effect="skeletal"
       id="path-effect20419-0-56-9-7"
       is_visible="true"
       lpeversion="1"
       pattern="M 0,18.867924 C 0,8.4528301 8.4528301,0 18.867924,0 c 10.415095,0 18.867925,8.4528301 18.867925,18.867924 0,10.415095 -8.45283,18.867925 -18.867925,18.867925 C 8.4528301,37.735849 0,29.283019 0,18.867924 Z"
       copytype="single_stretched"
       prop_scale="2.9439991"
       scale_y_rel="false"
       spacing="0"
       normal_offset="0"
       tang_offset="0"
       prop_units="false"
       vertical_pattern="false"
       hide_knot="false"
       fuse_tolerance="0" /><clipPath
       clipPathUnits="userSpaceOnUse"
       id="clipPath453"><g
         id="g461"><g
           id="g459"
           transform="matrix(0.0889615,0,0,0.07620916,-359.45674,89.179116)"><g
             id="g457"
             transform="translate(-2.8824639e-6,-1.4014878e-5)"><path
               clip-rule="nonzero"
               d="m 4883.2285,-676.02431 h 303.4074 V 43.943376 h -303.4074 z m 0,0"
               id="path455"
               style="stroke-width:30.4027" /></g></g></g></clipPath></defs><g
     inkscape:label="Layer 1"
     inkscape:groupmode="layer"
     id="layer1"
     transform="translate(-30.56175,-30.668083)"><text
       xml:space="preserve"
       style="font-style:normal;font-weight:normal;font-size:77.6825px;line-height:1.25;font-family:sans-serif;fill:#000000;fill-opacity:1;stroke:none;stroke-width:1.94207"
       x="175.06783"
       y="112.10152"
       id="text17403-2"
       transform="scale(0.99620227,1.0038122)"><tspan
         sodipodi:role="line"
         id="tspan17401-9"
         style="font-style:normal;font-variant:normal;font-weight:bold;font-stretch:normal;font-family:Carlito;-inkscape-font-specification:Carlito;stroke-width:1.94207"
         x="175.06783"
         y="112.10152">CNIR</tspan></text><g
       id="g8325"
       style="fill:#4d4d4d;fill-opacity:1;stroke:#a3a3a3;stroke-width:0.5;stroke-dasharray:none;stroke-opacity:1"
       transform="matrix(0.99202295,0,0,0.99202295,-8.1273502,-21.371055)"><path
         style="display:inline;fill:#4d4d4d;fill-opacity:1;fill-rule:evenodd;stroke:#a3a3a3;stroke-width:0.5;stroke-dasharray:none;stroke-opacity:1"
         d="m 124.82541,78.57915 4.48926,16.6889"
         id="path22360-4-70-6"
         inkscape:connector-type="polyline"
         inkscape:connector-curvature="0" /><path
         style="display:inline;fill:#4d4d4d;fill-opacity:1;fill-rule:evenodd;stroke:#a3a3a3;stroke-width:0.5;stroke-dasharray:none;stroke-opacity:1"
         d="M 147.1586,75.87678 130.05129,95.76769"
         id="path22364-5-9-4"
         inkscape:connector-type="polyline"
         inkscape:connector-curvature="0" /><path
         style="display:inline;fill:#4d4d4d;fill-opacity:1;fill-rule:evenodd;stroke:#a3a3a3;stroke-width:0.5;stroke-dasharray:none;stroke-opacity:1"
         d="M 147.03561,74.79585 125.5991,77.44623"
         id="path22368-4-3-9"
         inkscape:connector-type="polyline"
         inkscape:connector-curvature="0" /><path
         style="display:inline;fill:#4d4d4d;fill-opacity:1;fill-rule:evenodd;stroke:#a3a3a3;stroke-width:0.5;stroke-dasharray:none;stroke-opacity:1"
         d="M 123.1701,76.20386 107.45593,65.25284"
         id="path22372-92-6-5"
         inkscape:connector-type="polyline"
         inkscape:connector-curvature="0" /><path
         style="display:inline;fill:#4d4d4d;fill-opacity:1;fill-rule:evenodd;stroke:#a3a3a3;stroke-width:0.5;stroke-dasharray:none;stroke-opacity:1"
         d="m 124.35082,76.18138 3.63577,-12.35155"
         id="path22372-92-4-06-0"
         inkscape:connector-type="polyline"
         inkscape:connector-curvature="0" /><path
         style="display:inline;fill:#4d4d4d;fill-opacity:1;fill-rule:evenodd;stroke:#a3a3a3;stroke-width:0.5;stroke-dasharray:none;stroke-opacity:1"
         d="M 106.85637,64.94567 105.29334,86.3501"
         id="path22378-4-2-4"
         inkscape:connector-type="polyline"
         inkscape:connector-curvature="0" /><path
         style="display:inline;fill:#4d4d4d;fill-opacity:1;fill-rule:evenodd;stroke:#a3a3a3;stroke-width:0.5;stroke-dasharray:none;stroke-opacity:1"
         d="m 128.28888,96.01353 -22.4179,-8.55762"
         id="path22382-7-6-8"
         inkscape:connector-type="polyline"
         inkscape:connector-curvature="0" /><path
         style="display:inline;fill:#4d4d4d;fill-opacity:1;fill-rule:evenodd;stroke:#a3a3a3;stroke-width:0.5;stroke-dasharray:none;stroke-opacity:1"
         d="m 122.81125,77.42531 -17.05359,9.2063"
         id="path22386-5-1-7"
         inkscape:connector-type="polyline"
         inkscape:connector-curvature="0" /><path
         style="display:inline;fill:#4d4d4d;fill-opacity:1;fill-rule:evenodd;stroke:#a3a3a3;stroke-width:0.5;stroke-dasharray:none;stroke-opacity:1"
         d="m 84.148859,98.84105 2.649762,10.71421"
         id="path22368-6-8-8-1"
         inkscape:connector-type="polyline"
         inkscape:connector-curvature="0" /><path
         style="display:inline;fill:#4d4d4d;fill-opacity:1;fill-rule:evenodd;stroke:#a3a3a3;stroke-width:0.5;stroke-dasharray:none;stroke-opacity:1"
         d="m 87.145329,109.18494 1.0068,13.84527"
         id="path22368-6-8-8-1-8"
         inkscape:connector-type="polyline"
         inkscape:connector-curvature="0" /><path
         style="fill:#4d4d4d;fill-opacity:1;fill-rule:evenodd;stroke:#a3a3a3;stroke-width:0.5;stroke-dasharray:none;stroke-opacity:1"
         d="m 64.431539,95.52714 -1.52823,24.41312"
         id="path22360-3-2-7-7"
         inkscape:connector-type="polyline"
         inkscape:connector-curvature="0" /><path
         style="fill:#4d4d4d;fill-opacity:1;fill-rule:evenodd;stroke:#a3a3a3;stroke-width:0.5;stroke-dasharray:none;stroke-opacity:1"
         d="M 82.791519,98.83132 64.061509,120.4145"
         id="path22364-4-9-9-2"
         inkscape:connector-type="polyline"
         inkscape:connector-curvature="0" /><path
         style="fill:#4d4d4d;fill-opacity:1;fill-rule:evenodd;stroke:#a3a3a3;stroke-width:0.5;stroke-dasharray:none;stroke-opacity:1"
         d="M 82.154069,96.98484 66.471259,93.94888"
         id="path22368-1-6-2-7"
         inkscape:connector-type="polyline"
         inkscape:connector-curvature="0" /><path
         style="display:inline;fill:#4d4d4d;fill-opacity:1;fill-rule:evenodd;stroke:#a3a3a3;stroke-width:0.5;stroke-dasharray:none;stroke-opacity:1"
         d="M 63.588429,91.87945 55.570219,77.9501"
         id="path22372-9-0-0-2"
         inkscape:connector-type="polyline"
         inkscape:connector-curvature="0" /><path
         style="display:inline;fill:#4d4d4d;fill-opacity:1;fill-rule:evenodd;stroke:#a3a3a3;stroke-width:0.5;stroke-dasharray:none;stroke-opacity:1"
         d="M 104.05221,107.28368 87.189899,132.24944"
         id="path22360-3-0-1-23-2"
         inkscape:connector-type="polyline"
         inkscape:connector-curvature="0" /><path
         style="display:inline;fill:#4d4d4d;fill-opacity:1;fill-rule:evenodd;stroke:#a3a3a3;stroke-width:0.5;stroke-dasharray:none;stroke-opacity:1"
         d="M 111.22528,136.1354 87.955499,133.755"
         id="path22364-4-0-5-7-6"
         inkscape:connector-type="polyline"
         inkscape:connector-curvature="0" /><path
         style="display:inline;fill:#4d4d4d;fill-opacity:1;fill-rule:evenodd;stroke:#a3a3a3;stroke-width:0.5;stroke-dasharray:none;stroke-opacity:1"
         d="m 111.8419,135.01418 -7.21854,-27.92576"
         id="path22368-1-4-1-5-1"
         inkscape:connector-type="polyline"
         inkscape:connector-curvature="0" /><path
         style="fill:#4d4d4d;fill-opacity:1;fill-rule:evenodd;stroke:#a3a3a3;stroke-width:0.5;stroke-dasharray:none;stroke-opacity:1"
         d="m 144.95756,108.26423 13.29328,13.62031"
         id="path22360-3-0-7-8-9-0"
         inkscape:connector-type="polyline"
         inkscape:connector-curvature="0" /><path
         style="fill:#4d4d4d;fill-opacity:1;fill-rule:evenodd;stroke:#a3a3a3;stroke-width:0.5;stroke-dasharray:none;stroke-opacity:1"
         d="m 131.16776,119.69086 26.5095,3.3469"
         id="path22364-4-0-9-0-2-6"
         inkscape:connector-type="polyline"
         inkscape:connector-curvature="0" /><path
         style="fill:#4d4d4d;fill-opacity:1;fill-rule:evenodd;stroke:#a3a3a3;stroke-width:0.5;stroke-dasharray:none;stroke-opacity:1"
         d="m 130.69924,118.15926 11.4246,-10.00597"
         id="path22368-1-4-2-4-28-1"
         inkscape:connector-type="polyline"
         inkscape:connector-curvature="0" /><path
         style="display:inline;fill:#4d4d4d;fill-opacity:1;fill-rule:evenodd;stroke:#a3a3a3;stroke-width:0.5;stroke-dasharray:none;stroke-opacity:1"
         d="m 105.16919,106.53433 22.17062,12.41876"
         id="path22360-3-0-7-7-2-97-5"
         inkscape:connector-type="polyline"
         inkscape:connector-curvature="0" /><path
         style="display:inline;fill:#4d4d4d;fill-opacity:1;fill-rule:evenodd;stroke:#a3a3a3;stroke-width:0.5;stroke-dasharray:none;stroke-opacity:1"
         d="m 148.02779,76.53506 -4.43455,30.3574"
         id="path22364-4-0-9-1-5-3-9"
         inkscape:connector-type="polyline"
         inkscape:connector-curvature="0"
         sodipodi:nodetypes="cc" /><path
         style="display:inline;fill:#4d4d4d;fill-opacity:1;fill-rule:evenodd;stroke:#a3a3a3;stroke-width:0.5;stroke-dasharray:none;stroke-opacity:1"
         d="m 130.21782,97.0928 11.95189,8.43606"
         id="path22368-1-4-2-5-8-6-4"
         inkscape:connector-type="polyline"
         inkscape:connector-curvature="0" /><path
         style="display:inline;fill:#4d4d4d;fill-opacity:1;fill-rule:evenodd;stroke:#a3a3a3;stroke-width:0.5;stroke-dasharray:none;stroke-opacity:1"
         d="m 64.688859,121.46964 22.36814,-10.59762"
         id="path22665-8-1-9"
         inkscape:connector-type="polyline"
         inkscape:connector-curvature="0" /><path
         style="display:inline;fill:#4d4d4d;fill-opacity:1;fill-rule:evenodd;stroke:#a3a3a3;stroke-width:0.5;stroke-dasharray:none;stroke-opacity:1"
         d="m 44.600439,105.53346 9.91837,-27.69552"
         id="path22864-4-2-0"
         inkscape:connector-type="polyline"
         inkscape:connector-curvature="0" /><path
         style="display:inline;fill:#4d4d4d;fill-opacity:1;fill-rule:evenodd;stroke:#a3a3a3;stroke-width:0.5;stroke-dasharray:none;stroke-opacity:1"
         d="M 45.540969,106.27818 62.929309,94.66266"
         id="path22866-7-9-9"
         inkscape:connector-type="polyline"
         inkscape:connector-curvature="0" /><path
         style="fill:#4d4d4d;fill-opacity:1;fill-rule:evenodd;stroke:#a3a3a3;stroke-width:0.5;stroke-dasharray:none;stroke-opacity:1"
         d="m 45.464319,108.55492 15.76934,12.1431"
         id="path22870-4-3-1"
         inkscape:connector-type="polyline"
         inkscape:connector-curvature="0" /><path
         style="display:inline;fill:#4d4d4d;fill-opacity:1;fill-rule:evenodd;stroke:#a3a3a3;stroke-width:0.5;stroke-dasharray:none;stroke-opacity:1"
         d="m 56.286229,76.85208 27.51306,-2.50405"
         id="path22874-6-19-7"
         inkscape:connector-type="polyline"
         inkscape:connector-curvature="0" /><path
         style="display:inline;fill:#4d4d4d;fill-opacity:1;fill-rule:evenodd;stroke:#a3a3a3;stroke-width:0.5;stroke-dasharray:none;stroke-opacity:1"
         d="M 87.542549,73.39783 107.13462,64.75695"
         id="path22876-2-4-7"
         inkscape:connector-type="polyline"
         inkscape:connector-curvature="0" /><path
         style="fill:#4d4d4d;fill-opacity:1;fill-rule:evenodd;stroke:#a3a3a3;stroke-width:0.5;stroke-dasharray:none;stroke-opacity:1"
         d="m 84.212139,95.40782 1.39083,-19.30131"
         id="path22878-9-7-1"
         inkscape:connector-type="polyline"
         inkscape:connector-curvature="0" /><path
         style="display:inline;fill:#4d4d4d;fill-opacity:1;fill-rule:evenodd;stroke:#a3a3a3;stroke-width:0.5;stroke-dasharray:none;stroke-opacity:1"
         d="m 104.1924,104.97956 0.90435,-17.7812"
         id="path22878-9-9-8-1"
         inkscape:connector-type="polyline"
         inkscape:connector-curvature="0" /><path
         style="display:inline;fill:#4d4d4d;fill-opacity:1;fill-rule:evenodd;stroke:#a3a3a3;stroke-width:0.5;stroke-dasharray:none;stroke-opacity:1"
         d="M 103.17428,105.25093 84.988959,98.15568"
         id="path22878-9-9-9-4-5"
         inkscape:connector-type="polyline"
         inkscape:connector-curvature="0" /><path
         style="display:inline;fill:#4d4d4d;fill-opacity:1;fill-rule:evenodd;stroke:#a3a3a3;stroke-width:0.5;stroke-dasharray:none;stroke-opacity:1"
         d="M 87.355529,75.26113 104.24893,86.51262"
         id="path22880-9-50-9"
         inkscape:connector-type="polyline"
         inkscape:connector-curvature="0" /><path
         style="display:inline;fill:#4d4d4d;fill-opacity:1;fill-rule:evenodd;stroke:#a3a3a3;stroke-width:0.5;stroke-dasharray:none;stroke-opacity:1"
         d="M 85.791759,96.43034 104.18124,87.44658"
         id="path22884-0-3-7"
         inkscape:connector-type="polyline"
         inkscape:connector-curvature="0" /><path
         style="display:inline;fill:#4d4d4d;fill-opacity:1;fill-rule:evenodd;stroke:#a3a3a3;stroke-width:0.5;stroke-dasharray:none;stroke-opacity:1"
         d="M 112.79215,135.33514 127.7525,120.72403"
         id="path22360-3-0-7-7-7-3-6-7"
         inkscape:connector-type="polyline"
         inkscape:connector-curvature="0" /><path
         style="display:inline;fill:#4d4d4d;fill-opacity:1;fill-rule:evenodd;stroke:#a3a3a3;stroke-width:0.5;stroke-dasharray:none;stroke-opacity:1"
         d="m 129.32559,117.49522 0.0913,-19.61149"
         id="path22360-3-0-7-7-5-1-1-6"
         inkscape:connector-type="polyline"
         inkscape:connector-curvature="0" /><path
         style="display:inline;fill:#4d4d4d;fill-opacity:1;fill-rule:evenodd;stroke:#a3a3a3;stroke-width:0.5;stroke-dasharray:none;stroke-opacity:1"
         d="M 145.29432,105.90632 161.6357,96.60428"
         id="path23579-9-0-7"
         inkscape:connector-type="polyline"
         inkscape:connector-curvature="0" /><path
         style="display:inline;fill:#4d4d4d;fill-opacity:1;fill-rule:evenodd;stroke:#a3a3a3;stroke-width:0.5;stroke-dasharray:none;stroke-opacity:1"
         d="m 162.68658,97.23019 -2.91599,24.10515"
         id="path23581-1-6-3"
         inkscape:connector-type="polyline"
         inkscape:connector-curvature="0" /><path
         style="fill:#4d4d4d;fill-opacity:1;fill-rule:evenodd;stroke:#a3a3a3;stroke-width:0.5;stroke-dasharray:none;stroke-opacity:1"
         d="M 65.993589,92.25794 84.303339,75.47797"
         id="path23788-9-32-6"
         inkscape:connector-type="polyline"
         inkscape:connector-curvature="0" /><path
         style="display:inline;fill:#4d4d4d;fill-opacity:1;fill-rule:evenodd;stroke:#a3a3a3;stroke-width:0.5;stroke-dasharray:none;stroke-opacity:1"
         d="m 85.271859,72.26271 -2.41898,-9.75142"
         id="path23824-9-06-5"
         inkscape:connector-type="polyline"
         inkscape:connector-curvature="0" /><path
         style="display:inline;fill:#4d4d4d;fill-opacity:1;fill-rule:evenodd;stroke:#a3a3a3;stroke-width:0.5;stroke-dasharray:none;stroke-opacity:1"
         d="m 106.78462,65.12073 6.63733,-6.90755"
         id="path23824-9-06-5-1"
         inkscape:connector-type="polyline"
         inkscape:connector-curvature="0" /><path
         style="display:inline;fill:#4d4d4d;fill-opacity:1;fill-rule:evenodd;stroke:#a3a3a3;stroke-width:0.5;stroke-dasharray:none;stroke-opacity:1"
         d="m 107.4971,64.9842 -6.63733,-6.90755"
         id="path23824-9-06-5-1-0"
         inkscape:connector-type="polyline"
         inkscape:connector-curvature="0" /><path
         style="display:inline;fill:#4d4d4d;fill-opacity:1;fill-rule:evenodd;stroke:#a3a3a3;stroke-width:0.5;stroke-dasharray:none;stroke-opacity:1"
         d="m 130.61219,120.82625 6.3464,6.17262"
         id="path24038-3-15-6"
         inkscape:connector-type="polyline"
         inkscape:connector-curvature="0" /></g><circle
       style="fill:#b026b0;fill-opacity:1;fill-rule:nonzero;stroke:none;stroke-width:8.46635;stroke-dasharray:none;stroke-opacity:1"
       id="path18331-80-4-9"
       cx="138.35764"
       cy="53.123425"
       r="3.3075037" /><circle
       style="fill:#4adcb0;fill-opacity:1;fill-rule:nonzero;stroke:none;stroke-width:8.46635;stroke-dasharray:none;stroke-opacity:1"
       id="path18331-6-5-7-4"
       cx="120.13055"
       cy="74.551071"
       r="3.3075037" /><circle
       style="fill:#1db0b0;fill-opacity:1;fill-rule:nonzero;stroke:none;stroke-width:8.46635;stroke-dasharray:none;stroke-opacity:1"
       id="path18331-54-4-6-8"
       cx="118.96482"
       cy="41.83794"
       r="3.3075037" /><circle
       style="fill:#b0b04e;fill-opacity:1;fill-rule:nonzero;stroke:none;stroke-width:8.46635;stroke-dasharray:none;stroke-opacity:1"
       id="path18331-54-4-1-5-1"
       cx="114.89455"
       cy="55.416454"
       r="3.3075037" /><circle
       style="fill:#1521b0;fill-opacity:1;fill-rule:nonzero;stroke:none;stroke-width:8.46635;stroke-dasharray:none;stroke-opacity:1"
       id="path18331-45-0-6-2"
       cx="76.932014"
       cy="52.195629"
       r="3.3075037" /><circle
       style="fill:#b047b0;fill-opacity:1;fill-rule:nonzero;stroke:none;stroke-width:8.46635;stroke-dasharray:none;stroke-opacity:1"
       id="path18331-45-0-1-9-9"
       cx="96.113052"
       cy="65.199287"
       r="3.3075037" /><circle
       style="fill:#b07400;fill-opacity:1;fill-rule:nonzero;stroke:none;stroke-width:8.46635;stroke-dasharray:none;stroke-opacity:1"
       id="path18331-45-8-0-3-3"
       cx="74.113358"
       cy="40.879051"
       r="3.3075037" /><circle
       style="fill:#154eb0;fill-opacity:1;fill-rule:nonzero;stroke:none;stroke-width:8.46635;stroke-dasharray:none;stroke-opacity:1"
       id="path18331-45-4-4-74-9"
       cx="36.632423"
       cy="84.320007"
       r="3.3075037" /><circle
       style="fill:#ff9c00;fill-opacity:1;fill-rule:nonzero;stroke:none;stroke-width:8.46635;stroke-dasharray:none;stroke-opacity:1"
       id="path18331-73-6-5-0"
       cx="75.27375"
       cy="75.208405"
       r="3.3075037" /><circle
       style="fill:#70dddd;fill-opacity:1;fill-rule:nonzero;stroke:none;stroke-width:8.46635;stroke-dasharray:none;stroke-opacity:1"
       id="path18331-6-6-6-2-8"
       cx="54.223213"
       cy="98.746277"
       r="3.3075037" /><circle
       style="fill:#45ffb0;fill-opacity:1;fill-rule:nonzero;stroke:none;stroke-width:8.46635;stroke-dasharray:none;stroke-opacity:1"
       id="path18331-36-5-7-5-8"
       cx="47.009308"
       cy="55.955833"
       r="3.3075037" /><circle
       style="fill:#f4321b;fill-opacity:1;fill-rule:nonzero;stroke:none;stroke-width:8.46635;stroke-dasharray:none;stroke-opacity:1"
       id="path18331-54-6-5-4-5"
       cx="55.911274"
       cy="71.460114"
       r="3.3075037" /><circle
       style="fill:#b9b600;fill-opacity:1;fill-rule:nonzero;stroke:none;stroke-width:8.46635;stroke-dasharray:none;stroke-opacity:1"
       id="path18331-73-9-69-7-0"
       cx="103.22688"
       cy="112.85263"
       r="3.3075037" /><circle
       style="fill:#d757be;fill-opacity:1;fill-rule:nonzero;stroke:none;stroke-width:8.46635;stroke-dasharray:none;stroke-opacity:1"
       id="path18331-6-6-8-8-44-9"
       cx="78.8367"
       cy="110.22267"
       r="3.3075037" /><circle
       style="fill:#3640b0;fill-opacity:1;fill-rule:nonzero;stroke:none;stroke-width:8.46635;stroke-dasharray:none;stroke-opacity:1"
       id="path18331-54-6-1-7-3-6"
       cx="95.238174"
       cy="83.578621"
       r="3.3075037" /><circle
       style="fill:#f2b0ff;fill-opacity:1;fill-rule:nonzero;stroke:none;stroke-width:8.46635;stroke-dasharray:none;stroke-opacity:1"
       id="path18331-73-9-6-2-0-3"
       cx="-120.07161"
       cy="97.122292"
       r="3.3075037"
       transform="scale(-1,1)" /><circle
       style="fill:#2db000;fill-opacity:1;fill-rule:nonzero;stroke:none;stroke-width:8.46635;stroke-dasharray:none;stroke-opacity:1"
       id="path18331-54-6-1-1-2-8-5"
       cx="-134.32043"
       cy="84.642807"
       r="3.3075037"
       transform="scale(-1,1)" /><circle
       style="fill:#5f61ff;fill-opacity:1;fill-rule:nonzero;stroke:none;stroke-width:8.46635;stroke-dasharray:none;stroke-opacity:1"
       id="path18331-54-6-1-1-2-8-5-0"
       cx="-149.00836"
       cy="98.499298"
       r="3.3075037"
       transform="scale(-1,1)" /><circle
       style="fill:#ff4159;fill-opacity:1;fill-rule:nonzero;stroke:none;stroke-width:8.46635;stroke-dasharray:none;stroke-opacity:1"
       id="path18331-73-9-6-7-9-6-6"
       cx="-152.60391"
       cy="-74.647614"
       r="3.3075037"
       transform="scale(-1)" /><path
       style="fill:#000000;fill-opacity:1;stroke:none;stroke-width:1px;stroke-linecap:butt;stroke-linejoin:miter;stroke-opacity:1"
       d="m 7437.5215,1270.3649 c 0.8063,4.1262 -21.8619,12.1394 -64.1125,26.879 -39.9713,13.9445 -106.3778,37.3002 -178.8696,73.3167 -57.1237,28.4187 -125.9858,68.2248 -188.875,122.9627 -23.5808,20.5095 -46.889,43.5307 -67.8999,69.1894 -17.7791,21.7398 -34.2873,45.5735 -47.4197,71.2753 -11.3767,22.3004 -20.5735,46.1969 -25.638,70.8365 -4.6731,22.1125 -6.2248,45.2462 -3.627,67.9122 2.6716,15.5411 6.4874,30.2912 12.7427,42.6867 4.9725,10.0815 11.09,19.1997 18.4134,25.8307 6.497,6.1812 14.7358,11.2392 23.7547,14.9146 9.522,3.9777 20.7122,6.2275 32.8838,7.5166 13.4479,1.3647 27.828,0.8978 42.9956,-0.5738 16.6328,-1.6615 33.6552,-4.8433 51.1831,-8.9752 38.7327,-9.1224 77.4478,-22.8529 117.7053,-39.0441 41.4913,-16.7552 82.7897,-35.8601 125.3865,-56.6427 39.7236,-19.3933 78.8277,-39.5264 120.1148,-60.6829 17.8339,-9.1406 36.0727,-18.4679 54.5079,-27.6718 15.9492,-7.9665 32.3636,-15.9983 49.2421,-23.7662 13.6373,-6.2964 28.094,-12.6204 43.4864,-18.4114 6.2288,-2.3448 12.8689,-4.6439 19.9445,-6.7743 5.699,-1.7546 12.143,-3.4089 19.352,-4.7658 36.4755,-7.1869 73.482,-11.5298 110.7096,-13.4859 32.154,-1.6949 63.8883,-1.699 95.3825,-1.0042 26.0351,0.5497 51.5992,1.6266 75.5189,1.4556 9.9956,-0.083 19.4564,-0.3265 28.2897,-1.088 0,0 2e-4,-10e-5 2e-4,-10e-5 7.6927,-0.7059 14.5074,-1.5344 20.235,-2.9517 4.9098,-1.2942 8.7318,-2.4071 11.0243,-3.7752 1.8887,-1.1005 3.307,-2.002 3.7297,-2.6834 0.6485,-0.5043 1.4715,-2.0855 2.4949,-4.1726 0,0 0,0 0,0 1.422,-2.7784 2.3385,-7.3418 3.376,-13.1951 1.203,-7.513 1.3343,-16.2919 1.1154,-26.1574 -0.3568,-12.4842 -1.8186,-25.6324 -3.8016,-39.4609 -5.5509,-38.6094 -15.3468,-77.845 -26.4286,-118.7131 -15.6298,-56.0897 -35.5585,-111.4188 -60.7117,-164.4403 -22.4325,-47.3156 -48.9885,-92.9906 -79.9448,-135.6164 -10.995,-15.1484 -22.5506,-29.9378 -34.6506,-44.3081 -19.294,-22.9142 -39.8169,-44.5785 -61.4505,-64.81715 -33.9972,-31.82487 -70.8216,-60.23778 -109.6315,-84.89329 -38.4612,-24.44515 -78.9971,-45.2519 -120.6919,-62.47254 -42.0242,-17.35995 -85.3378,-31.07108 -129.1216,-41.444 -89.906,-21.34385 -181.9668,-28.3984 -271.5411,-24.5332 -92.5548,4.04451 -182.5747,19.8253 -267.2572,44.9998 -85.3144,25.43229 -164.5412,59.91731 -235.5355,103.11252 -34.8317,21.18003 -67.413,44.22742 -97.3532,69.25949 -29.3657,24.56587 -56.0347,50.74397 -79.4367,78.62927 -23.0165,27.4416 -42.8204,56.2102 -58.6894,86.1351 -15.8214,29.5312 -27.7902,60.0733 -35.3618,90.8706 -9.9274,56.4268 -14.4347,109.5452 -10.0098,160.2986 3.7894,42.1461 12.3712,80.5042 29.4612,112.6802 7.4836,14.3251 16.3189,27.3273 26.4832,38.4462 9.9899,10.9839 21.3649,20.3987 33.5211,27.8842 12.8358,7.9561 26.9169,13.9187 41.2803,18.0947 16.2029,4.7306 33.1589,7.104 49.8821,7.8785 93.0991,3.5956 171.5099,-4.3275 235.7651,-16.1385 57.8745,-10.5792 115.1908,-26.958 143.4762,-34.5663 32.916,-8.8538 50.7259,-12.6851 52.1258,-9.3166 1.3999,3.3684 -13.6244,13.7832 -44.5238,29.2575 -28.9443,14.4951 -79.6687,36.9977 -141.5974,54.8185 -65.5653,18.8026 -147.7315,33.6202 -245.7616,35.792 -20.7965,0.4066 -42.6962,-1.3944 -64.9015,-6.3921 -19.7298,-4.4592 -39.6055,-11.6316 -58.6832,-21.9702 -18.0425,-9.8262 -35.0207,-22.3709 -50.1882,-37.4377 -15.2962,-15.2459 -28.5595,-32.6352 -39.5378,-51.5951 -24.2409,-42.3419 -38.0276,-90.0229 -43.7797,-139.4105 -7.1221,-60.0222 -4.4954,-121.5215 4.7104,-184.22 8.2339,-39.0742 21.6214,-77.6296 39.7706,-114.6946 17.9843,-36.4412 40.286,-71.1596 66.2102,-103.7578 26.3183,-33.11081 56.0581,-63.99157 88.6175,-92.56549 33.176,-29.12992 69.0681,-55.86646 107.2426,-80.2115 77.7126,-49.53515 164.108,-89.3365 256.8309,-118.55515 92.0689,-29.08191 190.2701,-47.78242 291.9242,-53.46405 98.4212,-5.54962 200.463,1.36438 301.5536,24.41255 49.2442,11.24897 98.2216,26.42305 146.1117,45.87179 47.5321,19.30663 93.9034,42.86891 138.1816,70.77279 44.6856,28.17191 87.0664,60.71626 126.2697,97.30732 24.9333,23.28461 48.5133,48.13308 70.6123,74.36972 13.859,16.45387 27.065,33.36992 39.6026,50.68662 35.2636,48.7296 65.217,100.3936 90.1735,153.5719 27.9782,59.6495 49.8495,121.0867 66.5963,182.7805 11.4772,42.6829 21.9205,86.5086 28.3467,132.2791 2.3301,16.5578 4.0159,33.8568 4.4768,51.8728 0.4246,14.1387 -0.2195,29.378 -2.6374,45.488 -1.8245,12.8186 -5.5874,26.6905 -11.8764,41.0769 0,0 -1e-4,4e-4 -1e-4,4e-4 -5.4647,12.3552 -13.3789,24.226 -23.7255,35.0406 -10.1454,10.1979 -21.2972,18.121 -32.9278,23.7869 -12.4464,6.0087 -24.429,9.9415 -35.5385,12.2667 -12.689,2.7436 -24.6473,4.2425 -35.7019,4.9767 0,0 -2e-4,0 -2e-4,0 -12.7544,0.8967 -24.9388,1.1238 -36.4893,1.0419 -27.3539,-0.1695 -53.8426,-1.5722 -78.4422,-2.4201 -30.0578,-1.0041 -59.1536,-1.4344 -87.5721,-0.294 -33.146,1.3381 -65.5554,4.615 -96.9873,10.3299 -2.4228,0.352 -5.4665,1.1183 -9.1306,2.1002 -4.2309,1.1741 -8.7382,2.67 -13.5329,4.3621 -11.9673,4.2284 -24.2744,9.4092 -36.9792,14.9649 -15.5332,6.8152 -31.1391,14.1187 -46.7816,21.569 -18.0238,8.5882 -36.1548,17.4342 -54.1265,26.2071 -41.5731,20.2988 -81.8343,39.9675 -123.1954,59.0456 -44.2839,20.4383 -88.198,39.4588 -132.9955,56.2794 -43.2084,16.2862 -86.913,30.2834 -132.1681,39.7507 -20.6042,4.308 -41.6707,7.524 -63.194,9.0866 -19.6016,1.4663 -39.8438,1.2909 -60.4116,-1.2892 -18.8279,-2.3059 -37.9771,-7.2375 -56.6062,-15.391 -18.1245,-8.0216 -34.7185,-19.3788 -48.8704,-33.6005 -15.2605,-15.6841 -26.6101,-33.4218 -34.3992,-51.7068 -9.5651,-22.7709 -14.814,-45.6312 -17.31,-67.2885 -2.3471,-32.6901 0.8814,-64.6078 8.3371,-94.4097 8.2189,-32.216 20.9988,-61.8199 36.2262,-88.3226 17.4938,-30.4796 38.094,-57.4971 59.69,-81.2173 25.4773,-28.0135 52.7256,-52.2312 79.8006,-73.1323 72.2342,-55.718 147.5917,-92.6321 209.6807,-117.1532 79.578,-31.4774 148.4307,-46.9683 191.9717,-54.0459 45.0471,-7.3225 69.3045,-7.2706 70.1108,-3.1444 z"
       id="path20417-9-1-5"
       transform="matrix(0.07178165,0,0,0.07178165,-413.19245,-16.755688)"
       sodipodi:nodetypes="ccccccc"
       inkscape:original-d="m 7437.5215,1270.3649 c -363.938,71.1182 -635.5126,289.9181 -616.1294,506.8986 47.1738,339.553 642.7747,-85.7525 780.707,-110.2246 291.5346,-55.3891 473.7837,111.2238 365.3606,-290.3389 C 7690.9305,370.71186 6360.0413,667.29772 6231.9223,1233.6786 c -41.6832,259.5327 49.2112,401.5618 211.4991,403.154 185.1883,1.3751 312.9723,-40.6342 431.6249,-89.9447"
       inkscape:path-effect="#path-effect20419-0-56-9-7"
       class="UnoptimicedTransforms" /><circle
       style="fill:#000000;fill-opacity:1;fill-rule:nonzero;stroke:none;stroke-width:12.4935;stroke-dasharray:none;stroke-opacity:1"
       id="path18906-4-1-6-2-4-9"
       cy="115.71143"
       cx="135.95074"
       r="14.312342" /><path
       id="path18840-2-7-1-8-9-8"
       style="stroke:none;stroke-width:21.6286"
       inkscape:transform-center-x="-5.4561957"
       inkscape:transform-center-y="-284.60099"
       d="m 141.2161,143.83772 -29.41139,-33.41998 15.11656,-5.32213 z"
       sodipodi:nodetypes="cccc" /><path
       style="fill:#000000;fill-opacity:1;stroke:#000000;stroke-width:2.53008;stroke-dasharray:none;stroke-opacity:1"
       d="m 77.857082,88.104414 c 0.829502,-0.03399 1.264003,-0.509642 1.264003,-1.053262 0,-0.7135 -0.632002,-1.087237 -1.224503,-1.087237 -0.592501,0 -1.224503,0.339761 -1.224503,1.087237 0,1.121215 1.264003,2.038572 2.804506,2.038572 3.831509,0 5.253512,-5.09643 7.031016,-11.382025 1.935505,-6.829214 3.594508,-13.760358 4.937511,-20.725479 0.948002,-4.586786 1.557462,-11.260127 2.426464,-14.046175 0.316,-1.087238 1.444545,-1.548898 2.432047,-1.548898 0.790002,0 1.422003,0.407715 1.540504,0.509643 -0.829502,0.03398 -1.264003,0.509643 -1.264003,1.053262 0,0.713501 0.873171,1.652119 1.426172,1.652119 0.632002,0 1.620007,-0.777521 1.620007,-1.558974 0,-1.155191 -1.979677,-2.131716 -3.36218,-2.131716 -1.896004,0 -3.318007,2.378333 -4.70051,6.795238 -0.079,0.237834 -3.515508,11.110216 -6.280515,25.278289 -0.671501,3.329666 -1.268864,9.618513 -2.098366,12.642396 -0.474001,1.596879 -1.733142,2.986654 -3.787147,2.986654 -0.908502,0 -1.501003,-0.509644 -1.540503,-0.509644 z"
       id="path23-6-4-43-1" /></g></svg>
